<?xml version="1.0" encoding="utf-8"?>
<!DOCTYPE svg PUBLIC "-//W3C//DTD SVG 20010904//EN" "http://www.w3.org/TR/2001/REC-SVG-20010904/DTD/svg10.dtd">
<svg version="1.0" xmlns="http://www.w3.org/2000/svg" width="200pt" height="199pt" viewBox="0 0 200 199" style="" preserveAspectRatio="xMidYMid meet">
<g fill="#0F1923FF" stroke="#0F1923FF">
<path d="M 84.500 9.161 C 64.199 12.966 45.573 22.959 32.793 36.900 C 22.348 48.294 14.900 62.148 10.894 77.634 C 7.728 89.872 7.741 107.667 10.925 120.500 C 17.999 149.013 38.405 172.649 65.173 183.337 C 77.973 188.448 83.533 189.472 98.500 189.475 C 114.006 189.478 124.398 187.430 136.557 181.974 C 159.695 171.593 178.363 150.288 186.041 125.500 C 199.965 80.550 176.511 31.918 132.513 14.511 C 118.084 8.802 98.221 6.589 84.500 9.161 M 111.678 12.074 C 122.857 13.609 133.130 17.294 143.663 23.548 C 164.033 35.642 177.508 53.244 184.199 76.500 C 186.171 83.357 186.493 86.714 186.452 100.000 C 186.406 114.683 186.236 116.002 183.227 125.025 C 175.362 148.606 158.873 167.719 137.500 178.030 C 125.998 183.579 116.397 185.975 103.000 186.641 C 82.879 187.642 67.261 183.012 48.383 170.451 C 31.058 158.923 18.572 140.307 13.391 118.281 C 11.104 108.562 11.136 88.609 13.452 79.000 C 18.464 58.207 32.472 37.801 49.522 26.456 C 68.620 13.749 89.199 8.987 111.678 12.074 "/></g>
<g fill="#0F1923FF" stroke="#0F1923FF">
<path d="M 89.472 14.042 C 46.019 19.724 14.000 55.546 14.000 98.477 C 14.000 132.656 32.831 162.425 63.379 176.539 C 71.344 180.219 83.360 183.485 92.696 184.506 C 100.126 185.319 114.995 183.544 124.000 180.770 C 174.600 165.183 199.040 107.900 175.316 60.500 C 162.522 34.940 137.842 17.648 109.026 14.056 C 99.695 12.893 98.265 12.892 89.472 14.042 M 148.190 56.336 C 168.516 66.169 173.833 92.080 158.882 108.439 C 150.927 117.142 147.346 118.408 129.000 119.000 L 113.500 119.500 113.329 134.500 L 113.158 149.500 104.079 149.788 L 95.000 150.075 95.000 141.471 C 95.000 134.010 95.312 132.443 97.349 129.683 C 101.155 124.526 103.186 118.046 103.751 109.250 L 104.282 101.000 120.673 101.000 C 138.483 101.000 141.586 100.332 146.000 95.548 C 148.104 93.268 148.500 91.861 148.500 86.669 C 148.500 82.072 147.990 79.808 146.500 77.783 C 142.737 72.672 139.787 72.000 121.099 72.000 L 104.000 72.000 104.000 62.394 L 104.000 52.788 123.250 53.185 C 141.811 53.569 142.704 53.681 148.190 56.336 M 98.797 84.250 C 98.502 114.222 98.394 115.735 96.174 121.247 C 93.211 128.600 85.410 137.166 78.690 140.442 C 72.577 143.424 63.569 144.811 56.305 143.890 C 40.978 141.948 26.921 127.320 25.301 111.628 L 24.712 105.921 34.081 106.211 L 43.449 106.500 44.215 110.998 C 47.091 127.898 70.017 131.337 77.750 116.030 C 79.931 111.713 80.000 110.675 80.000 82.288 L 80.000 53.000 89.553 53.000 L 99.105 53.000 98.797 84.250 "/></g>
<g fill="#FFFFFFFF" stroke="#FFFFFFFF">
<path d="M 104.000 62.394 L 104.000 72.000 121.099 72.000 C 139.787 72.000 142.737 72.672 146.500 77.783 C 147.990 79.808 148.500 82.072 148.500 86.669 C 148.500 91.861 148.104 93.268 146.000 95.548 C 141.586 100.332 138.483 101.000 120.673 101.000 L 104.282 101.000 103.751 109.250 C 103.186 118.046 101.155 124.526 97.349 129.683 C 95.312 132.443 95.000 134.010 95.000 141.471 L 95.000 150.075 104.079 149.788 L 113.158 149.500 113.329 134.500 L 113.500 119.500 129.000 119.000 C 147.346 118.408 150.927 117.142 158.882 108.439 C 167.097 99.451 169.628 86.985 165.625 75.238 C 163.229 68.209 155.572 59.907 148.190 56.336 C 142.704 53.681 141.811 53.569 123.250 53.185 L 104.000 52.788 104.000 62.394 "/></g>
<g fill="#FFFFFFFF" stroke="#FFFFFFFF">
<path d="M 80.000 82.288 C 80.000 110.675 79.931 111.713 77.750 116.030 C 70.017 131.337 47.091 127.898 44.215 110.998 L 43.449 106.500 34.081 106.211 L 24.712 105.921 25.301 111.628 C 26.921 127.320 40.978 141.948 56.305 143.890 C 63.569 144.811 72.577 143.424 78.690 140.442 C 85.410 137.166 93.211 128.600 96.174 121.247 C 98.394 115.735 98.502 114.222 98.797 84.250 L 99.105 53.000 89.553 53.000 L 80.000 53.000 80.000 82.288 "/></g>
<g fill="#926318FF" stroke="#926318FF">
<path d="M 4.397 113.408 C 4.036 114.348 4.435 117.927 5.283 121.362 C 14.415 158.370 42.338 185.270 80.302 193.635 C 91.351 196.070 110.277 195.686 121.332 192.803 C 126.189 191.536 130.127 190.163 130.082 189.750 C 130.037 189.338 129.734 189.030 129.409 189.067 C 129.084 189.103 128.296 188.453 127.659 187.621 C 126.636 186.287 125.865 186.277 121.097 187.538 C 100.069 193.098 79.898 190.962 59.500 181.014 C 35.073 169.101 16.556 146.523 10.854 121.700 C 9.359 115.190 5.577 110.333 4.397 113.408 "/></g>
<g fill="#926318FF" stroke="#926318FF">
<path d="M 95.784 2.540 C 94.041 4.306 100.359 7.261 107.620 8.075 C 129.453 10.524 147.515 18.897 162.461 33.500 C 166.965 37.900 172.526 44.425 174.820 48.000 C 177.114 51.575 179.461 55.063 180.035 55.750 C 180.609 56.438 180.724 57.038 180.289 57.083 C 179.855 57.129 180.400 57.296 181.500 57.454 C 182.600 57.613 184.373 58.106 185.441 58.551 C 187.032 59.215 186.696 58.112 183.574 52.430 C 170.809 29.195 148.702 12.109 122.991 5.607 C 113.079 3.101 97.018 1.290 95.784 2.540 "/></g>
<g fill="#D5A649FF" stroke="#D5A649FF">
<path d="M 11.706 58.750 C 5.887 71.245 3.875 79.819 3.276 94.673 C 2.774 107.114 3.328 114.006 4.718 112.616 C 5.059 112.275 6.229 112.784 7.319 113.748 C 9.248 115.454 9.282 115.427 8.615 112.686 C 8.238 111.139 7.927 105.064 7.923 99.186 C 7.914 84.165 11.013 70.802 17.454 58.090 C 19.626 53.804 19.904 52.555 18.837 51.878 C 16.201 50.207 15.264 51.110 11.706 58.750 "/></g>
<g fill="#D5A649FF" stroke="#D5A649FF">
<path d="M 175.000 149.805 C 175.000 151.615 163.636 164.210 156.809 169.968 C 149.995 175.714 131.742 186.000 128.360 186.000 C 127.248 186.000 127.144 186.417 127.920 187.750 C 128.481 188.713 128.953 189.107 128.970 188.628 C 128.986 188.148 129.643 188.289 130.429 188.941 C 131.562 189.882 133.408 189.410 139.371 186.655 C 143.504 184.746 149.498 181.455 152.691 179.342 C 165.440 170.906 182.286 152.058 178.959 149.953 C 177.150 148.809 175.000 148.729 175.000 149.805 "/></g>
<g fill="#926318FF" stroke="#926318FF">
<path d="M 12.884 106.000 C 11.625 115.199 17.392 133.971 25.173 146.000 C 31.417 155.653 44.972 168.610 54.880 174.397 C 71.254 183.959 89.588 188.053 107.374 186.118 C 118.194 184.940 130.177 181.845 128.331 180.705 C 127.716 180.325 125.350 180.671 123.074 181.474 C 116.470 183.804 102.224 185.311 93.000 184.654 C 71.228 183.105 50.083 172.851 35.558 156.801 C 25.974 146.210 18.588 132.052 15.961 119.235 C 15.315 116.081 14.540 112.825 14.239 112.000 C 13.938 111.175 13.648 108.475 13.596 106.000 L 13.500 101.500 12.884 106.000 "/></g>
<g fill="#F7DC93FF" stroke="#F7DC93FF">
<path d="M 47.000 17.835 C 37.694 23.834 30.543 30.257 24.211 38.304 C 17.547 46.772 17.501 46.880 20.152 47.860 C 22.074 48.572 22.844 48.139 25.063 45.102 C 32.657 34.705 43.368 25.223 54.880 18.708 C 59.813 15.915 60.108 15.552 58.439 14.331 C 55.764 12.376 55.201 12.548 47.000 17.835 "/></g>
<g fill="#F7DC93FF" stroke="#F7DC93FF">
<path d="M 190.660 104.260 C 189.835 114.995 186.629 127.641 182.389 136.891 C 180.525 140.956 179.000 144.427 179.000 144.606 C 179.000 144.784 179.889 145.405 180.975 145.986 C 182.735 146.929 183.263 146.417 185.835 141.272 C 190.918 131.105 194.059 119.437 195.550 105.187 C 196.121 99.738 195.957 98.683 194.355 97.469 C 193.335 96.696 192.229 96.049 191.898 96.032 C 191.566 96.014 191.009 99.717 190.660 104.260 "/></g>
<g fill="#926318FF" stroke="#926318FF">
<path d="M 103.500 13.030 C 120.581 14.443 133.239 18.712 146.604 27.564 C 158.545 35.475 171.538 50.229 175.957 60.896 C 176.658 62.589 177.627 63.731 178.109 63.433 C 178.591 63.135 178.025 61.003 176.852 58.696 C 162.799 31.059 131.916 11.643 102.803 12.143 L 94.500 12.285 103.500 13.030 "/></g>
<g fill="#D5A649FF" stroke="#D5A649FF">
<path d="M 79.000 4.553 C 75.425 5.319 69.160 7.158 65.078 8.638 C 59.055 10.821 58.046 11.473 59.726 12.094 C 60.864 12.515 62.048 13.269 62.358 13.770 C 62.669 14.273 65.952 13.657 69.710 12.390 C 73.444 11.131 79.650 9.591 83.500 8.969 C 87.350 8.346 91.625 7.600 93.000 7.311 C 95.444 6.796 95.451 6.766 93.352 5.962 C 92.171 5.510 90.907 4.659 90.543 4.070 C 89.701 2.707 87.102 2.815 79.000 4.553 "/></g>
<g fill="#D5A649FF" stroke="#D5A649FF">
<path d="M 183.459 62.500 C 185.943 68.466 189.194 81.353 189.707 87.270 C 190.029 90.993 190.499 93.835 190.750 93.584 C 191.000 93.333 192.291 93.540 193.617 94.044 C 195.773 94.864 195.980 94.725 195.569 92.731 C 195.316 91.504 194.833 88.250 194.495 85.500 C 193.463 77.097 189.929 65.245 187.910 63.419 C 186.860 62.468 186.000 62.040 186.000 62.467 C 186.000 62.895 185.241 62.627 184.313 61.872 C 182.810 60.650 182.717 60.719 183.459 62.500 "/></g>
<g fill="#D5A649FF" stroke="#D5A649FF">
<path d="M 20.079 61.980 C 14.855 73.312 12.891 81.423 12.287 94.151 C 11.983 100.559 12.040 107.024 12.415 108.516 C 12.797 110.037 13.234 105.576 13.410 98.365 C 13.768 83.713 15.935 73.976 21.323 62.809 C 23.155 59.011 24.343 55.712 23.963 55.477 C 23.584 55.243 21.835 58.169 20.079 61.980 "/></g>
<g fill="#D5A649FF" stroke="#D5A649FF">
<path d="M 168.149 150.284 C 164.614 155.421 153.056 166.489 146.555 170.962 C 143.980 172.734 138.639 175.735 134.686 177.631 C 130.734 179.527 128.625 180.777 130.000 180.408 C 134.639 179.164 146.463 172.756 152.000 168.484 C 160.826 161.674 174.850 146.000 172.116 146.000 C 171.555 146.000 169.770 147.928 168.149 150.284 "/></g>
<g fill="#F7DC93FF" stroke="#F7DC93FF">
<path d="M 52.808 25.026 C 49.127 27.235 43.628 31.315 40.588 34.094 C 34.971 39.227 26.000 50.367 26.000 52.209 C 26.000 52.765 27.945 50.583 30.323 47.360 C 35.838 39.884 44.499 31.968 53.878 25.829 C 62.812 19.982 62.102 19.450 52.808 25.026 "/></g>
<g fill="#F7DC93FF" stroke="#F7DC93FF">
<path d="M 185.250 103.685 C 184.856 111.855 182.242 122.688 178.425 131.964 C 173.598 143.696 173.444 144.310 176.914 138.000 C 182.197 128.394 185.185 117.591 185.352 107.500 C 185.433 102.550 185.388 100.833 185.250 103.685 "/></g>
<g fill="#D5A649FF" stroke="#D5A649FF">
<path d="M 180.929 72.000 C 181.920 75.025 183.282 80.875 183.955 85.000 C 185.710 95.744 185.756 95.902 185.884 91.624 C 186.029 86.764 182.352 70.856 180.507 68.364 C 179.550 67.071 179.680 68.185 180.929 72.000 "/></g>
<g fill="#D5A649FF" stroke="#D5A649FF">
<path d="M 78.000 14.125 C 71.219 15.954 63.000 19.254 63.000 20.148 C 63.000 20.645 64.409 20.323 66.131 19.432 C 67.853 18.542 73.365 16.752 78.381 15.456 C 83.396 14.159 86.150 13.117 84.500 13.139 C 82.850 13.162 79.925 13.605 78.000 14.125 "/></g>
<g fill="#FFFFFFFF" stroke="#FFFFFFFF">
<path d="M 91.000 4.500 C 91.685 5.325 92.977 6.007 93.872 6.015 C 95.040 6.026 95.152 6.252 94.269 6.813 C 93.580 7.250 94.901 7.534 97.269 7.456 C 99.596 7.379 101.121 7.245 100.658 7.158 C 100.194 7.071 98.671 6.100 97.273 5.000 C 94.151 2.544 89.039 2.137 91.000 4.500 "/></g>
<g fill="#FFFFFFFF" stroke="#FFFFFFFF">
<path d="M 190.598 93.735 C 190.269 94.064 190.081 96.846 190.180 99.917 L 190.360 105.500 190.735 100.750 C 191.091 96.236 192.145 94.807 193.500 97.000 C 194.495 98.610 196.176 98.149 195.823 96.363 C 195.484 94.646 191.627 92.706 190.598 93.735 "/></g>
<g fill="#FFFFFFFF" stroke="#FFFFFFFF">
<path d="M 180.706 57.985 C 181.177 59.784 186.000 63.807 186.000 62.401 C 186.000 62.046 186.640 62.286 187.421 62.935 C 188.590 63.904 188.745 63.740 188.293 62.012 C 187.990 60.856 186.047 59.044 183.973 57.986 C 180.256 56.090 180.211 56.090 180.706 57.985 "/></g>
<g fill="#FFFFFFFF" stroke="#FFFFFFFF">
<path d="M 16.892 48.630 C 15.865 49.867 15.898 50.323 17.064 51.061 C 17.854 51.561 18.857 51.976 19.294 51.985 C 19.730 51.993 19.955 52.788 19.794 53.750 C 19.586 54.988 19.876 54.841 20.785 53.250 C 21.492 52.013 21.717 50.986 21.285 50.970 C 20.853 50.953 21.400 50.418 22.500 49.780 C 23.600 49.142 24.050 48.652 23.500 48.691 C 22.950 48.729 21.522 48.389 20.327 47.934 C 18.806 47.356 17.776 47.565 16.892 48.630 "/></g>
<g fill="#FFFFFFFF" stroke="#FFFFFFFF">
<path d="M 177.435 145.895 C 177.740 146.388 177.204 147.096 176.244 147.470 C 174.803 148.032 175.035 148.376 177.583 149.456 C 180.333 150.622 180.792 150.563 181.823 148.911 C 182.773 147.390 182.637 146.876 181.056 146.030 C 178.687 144.762 176.689 144.688 177.435 145.895 "/></g>
<g fill="#FFFFFFFF" stroke="#FFFFFFFF">
<path d="M 90.559 12.532 C 88.721 13.922 88.788 14.000 91.809 14.000 C 93.564 14.000 95.000 13.571 95.000 13.048 C 95.000 12.524 97.813 11.936 101.250 11.740 L 107.500 11.385 100.000 11.224 C 94.746 11.112 91.919 11.503 90.559 12.532 "/></g>
<g fill="#FFFFFFFF" stroke="#FFFFFFFF">
<path d="M 184.165 90.500 C 184.091 92.700 184.650 96.281 185.408 98.458 L 186.785 102.416 186.585 94.958 C 186.475 90.856 186.231 89.300 186.042 91.500 L 185.700 95.500 185.000 91.000 L 184.300 86.500 184.165 90.500 "/></g>
<g fill="#FFFFFFFF" stroke="#FFFFFFFF">
<path d="M 179.482 133.057 C 178.924 134.814 178.586 134.982 177.825 133.882 C 177.157 132.916 177.072 133.215 177.542 134.875 C 177.982 136.432 177.850 137.025 177.157 136.597 C 176.576 136.238 175.583 136.911 174.950 138.093 C 174.154 139.582 174.138 140.033 174.900 139.562 C 175.505 139.188 176.021 139.471 176.047 140.191 C 176.072 140.911 177.228 139.318 178.615 136.652 C 180.003 133.986 180.923 131.590 180.660 131.327 C 180.398 131.064 179.867 131.843 179.482 133.057 "/></g>
<g fill="#FFFFFFFF" stroke="#FFFFFFFF">
<path d="M 58.354 14.452 C 59.809 15.801 61.000 16.449 61.000 15.893 C 61.000 15.337 61.450 15.160 62.000 15.500 C 62.550 15.840 63.000 15.731 63.000 15.259 C 63.000 13.622 60.588 12.000 58.154 12.000 L 55.708 12.000 58.354 14.452 "/></g>
<g fill="#FFFFFFFF" stroke="#FFFFFFFF">
<path d="M 161.500 160.464 L 155.500 166.549 161.500 160.464 L 167.500 154.378 161.500 160.464 "/></g>
<g fill="#FFFFFFFF" stroke="#FFFFFFFF">
<path d="M 163.500 163.457 L 158.500 168.554 163.500 163.457 L 168.500 158.361 163.500 163.457 "/></g>
<g fill="#FFFFFFFF" stroke="#FFFFFFFF">
<path d="M 38.500 159.500 L 44.000 165.000 38.500 159.500 L 33.000 154.000 38.500 159.500 "/></g>
<g fill="#FFFFFFFF" stroke="#FFFFFFFF">
<path d="M 37.000 161.000 L 42.000 166.000 37.000 161.000 L 32.000 156.000 37.000 161.000 "/></g>
<g fill="#FFFFFFFF" stroke="#FFFFFFFF">
<path d="M 177.537 63.940 C 177.217 64.458 177.978 65.799 179.228 66.922 L 181.500 68.963 180.500 66.807 C 179.950 65.621 179.613 64.279 179.750 63.825 C 180.095 62.687 178.252 62.782 177.537 63.940 "/></g>
<g fill="#FFFFFFFF" stroke="#FFFFFFFF">
<path d="M 39.000 37.953 L 34.500 42.556 39.000 37.953 L 43.500 33.350 39.000 37.953 "/></g>
<g fill="#FFFFFFFF" stroke="#FFFFFFFF">
<path d="M 38.000 35.953 L 33.500 40.556 38.000 35.953 L 42.500 31.350 38.000 35.953 "/></g>
<g fill="#FFFFFFFF" stroke="#FFFFFFFF">
<path d="M 164.000 35.000 L 169.000 40.000 164.000 35.000 L 159.000 30.000 164.000 35.000 "/></g>
<g fill="#FFFFFFFF" stroke="#FFFFFFFF">
<path d="M 35.000 33.953 L 30.500 38.556 35.000 33.953 L 39.500 29.350 35.000 33.953 "/></g>
<g fill="#FFFFFFFF" stroke="#FFFFFFFF">
<path d="M 24.639 52.498 C 23.718 54.899 23.850 56.000 25.059 56.000 C 25.641 56.000 25.869 55.597 25.565 55.105 C 25.260 54.612 25.689 53.950 26.516 53.632 C 27.344 53.315 27.729 53.081 27.372 53.113 C 27.016 53.145 26.398 52.645 26.001 52.002 C 25.496 51.185 25.086 51.335 24.639 52.498 "/></g>
<g fill="#FFFFFFFF" stroke="#FFFFFFFF">
<path d="M 172.435 143.895 C 172.740 144.388 172.204 145.152 171.244 145.594 C 169.786 146.265 169.854 146.356 171.661 146.151 C 174.167 145.865 175.757 143.000 173.410 143.000 C 172.569 143.000 172.131 143.403 172.435 143.895 "/></g>
<g fill="#FFFFFFFF" stroke="#FFFFFFFF">
<path d="M 30.434 44.201 C 28.905 45.991 28.867 46.182 30.250 45.110 C 32.258 43.555 32.616 44.909 30.750 47.002 C 29.689 48.192 29.761 48.206 31.228 47.098 C 32.178 46.380 32.823 44.924 32.662 43.864 C 32.384 42.044 32.259 42.063 30.434 44.201 "/></g>
<g fill="#FFFFFFFF" stroke="#FFFFFFFF">
<path d="M 27.325 42.310 C 26.129 43.515 25.004 45.061 24.825 45.746 C 24.646 46.432 25.625 45.446 27.000 43.556 C 29.024 40.775 29.085 40.538 27.325 42.310 "/></g>
<g fill="#FFFFFFFF" stroke="#FFFFFFFF">
<path d="M 182.571 76.571 C 182.204 78.037 182.096 79.429 182.331 79.665 C 182.567 79.900 183.061 78.894 183.429 77.429 C 183.796 75.963 183.904 74.571 183.669 74.335 C 183.433 74.100 182.939 75.106 182.571 76.571 "/></g>
<g fill="#FFFFFFFF" stroke="#FFFFFFFF">
<path d="M 52.441 24.502 C 50.559 25.959 50.559 25.984 52.414 25.333 C 53.843 24.831 54.120 24.996 53.510 25.985 C 52.989 26.826 53.079 27.069 53.756 26.651 C 54.342 26.288 54.723 25.319 54.602 24.496 C 54.408 23.169 54.163 23.170 52.441 24.502 "/></g>
<g fill="#FFFFFFFF" stroke="#FFFFFFFF">
<path d="M 52.861 20.035 L 50.500 22.070 54.000 20.039 C 55.925 18.922 56.987 18.006 56.361 18.004 C 55.734 18.002 54.159 18.916 52.861 20.035 "/></g>
<g fill="#FFFFFFFF" stroke="#FFFFFFFF">
<path d="M 67.000 18.000 C 68.051 18.679 68.126 19.019 67.250 19.135 C 66.563 19.226 66.450 19.300 67.000 19.300 C 69.895 19.300 70.452 18.938 69.000 18.000 C 68.175 17.467 67.050 17.031 66.500 17.031 C 65.950 17.031 66.175 17.467 67.000 18.000 "/></g>
<g fill="#FFFFFFFF" stroke="#FFFFFFFF">
<path d="M 61.000 19.941 C 61.000 20.459 61.450 21.160 62.000 21.500 C 62.550 21.840 63.000 21.416 63.000 20.559 C 63.000 19.702 62.550 19.000 62.000 19.000 C 61.450 19.000 61.000 19.423 61.000 19.941 "/></g>
<g fill="#FFFFFFFF" stroke="#FFFFFFFF">
<path d="M 149.259 168.268 C 148.576 169.047 148.351 170.018 148.759 170.425 C 149.166 170.833 149.536 170.792 149.579 170.333 C 149.622 169.875 149.847 168.904 150.079 168.176 C 150.396 167.179 150.193 167.202 149.259 168.268 "/></g>
<g fill="#FFFFFFFF" stroke="#FFFFFFFF">
<path d="M 155.000 163.888 L 153.500 165.563 155.000 163.888 L 156.500 162.212 155.000 163.888 "/></g>
<g fill="#FFFFFFFF" stroke="#FFFFFFFF">
<path d="M 165.000 153.888 L 163.500 155.563 165.000 153.888 L 166.500 152.212 165.000 153.888 "/></g>
<g fill="#FFFFFFFF" stroke="#FFFFFFFF">
<path d="M 183.000 134.000 C 182.835 134.550 182.700 135.450 182.700 136.000 C 182.700 136.667 182.800 136.667 183.000 136.000 C 183.165 135.450 183.300 134.550 183.300 134.000 C 183.300 133.333 183.200 133.333 183.000 134.000 "/></g>
<g fill="#FFFFFFFF" stroke="#FFFFFFFF">
<path d="M 183.150 64.129 C 184.002 65.626 184.395 65.868 184.215 64.787 C 184.058 63.845 183.450 62.778 182.865 62.417 C 182.279 62.055 182.408 62.825 183.150 64.129 "/></g>
<g fill="#FFFFFFFF" stroke="#FFFFFFFF">
<path d="M 15.000 63.000 C 14.835 63.550 14.700 64.450 14.700 65.000 C 14.700 65.667 14.800 65.667 15.000 65.000 C 15.165 64.450 15.300 63.550 15.300 63.000 C 15.300 62.333 15.200 62.333 15.000 63.000 "/></g>
<g fill="#FFFFFFFF" stroke="#FFFFFFFF">
<path d="M 47.000 30.888 L 45.500 32.563 47.000 30.888 L 48.500 29.212 47.000 30.888 "/></g>
<g fill="#FFFFFFFF" stroke="#FFFFFFFF">
<path d="M 43.000 26.888 L 41.500 28.563 43.000 26.888 L 44.500 25.212 43.000 26.888 "/></g>
<g fill="#FFFFFFFF" stroke="#FFFFFFFF">
<path d="M 171.378 154.378 L 170.500 155.256 171.378 154.378 L 172.256 153.500 171.378 154.378 "/></g>
<g fill="#FFFFFFFF" stroke="#FFFFFFFF">
<path d="M 30.500 150.500 L 32.000 152.000 30.500 150.500 L 29.000 149.000 30.500 150.500 "/></g>
<g fill="#FFFFFFFF" stroke="#FFFFFFFF">
<path d="M 184.843 68.613 C 185.446 69.651 185.953 69.964 185.970 69.309 C 185.986 68.654 185.493 67.805 184.874 67.422 C 184.045 66.910 184.037 67.224 184.843 68.613 "/></g>
<g fill="#FFFFFFFF" stroke="#FFFFFFFF">
<path d="M 165.500 41.500 L 167.000 43.000 165.500 41.500 L 164.000 40.000 165.500 41.500 "/></g>
<g fill="#FFFFFFFF" stroke="#FFFFFFFF">
<path d="M 154.500 33.500 L 156.000 35.000 154.500 33.500 L 153.000 32.000 154.500 33.500 "/></g>
<g fill="#FFFFFFFF" stroke="#FFFFFFFF">
<path d="M 156.500 32.500 L 158.000 34.000 156.500 32.500 L 155.000 31.000 156.500 32.500 "/></g>
<g fill="#FFFFFFFF" stroke="#FFFFFFFF">
<path d="M 45.378 29.378 L 44.500 30.256 45.378 29.378 L 46.256 28.500 45.378 29.378 "/></g>
<g fill="#FFFFFFFF" stroke="#FFFFFFFF">
<path d="M 56.422 24.126 C 55.910 24.955 56.224 24.963 57.613 24.157 C 58.651 23.554 58.964 23.047 58.309 23.030 C 57.654 23.014 56.805 23.507 56.422 24.126 "/></g>
<g fill="#FFFFFFFF" stroke="#FFFFFFFF">
<path d="M 86.800 13.200 C 87.733 14.133 88.000 14.133 88.000 13.200 C 88.000 12.540 87.460 12.000 86.800 12.000 C 85.867 12.000 85.867 12.267 86.800 13.200 "/></g>
<g fill="#926318FF" stroke="#926318FF">
<path d="M 129.422 179.874 C 129.805 180.493 130.654 180.986 131.309 180.970 C 131.964 180.953 131.651 180.446 130.613 179.843 C 129.224 179.037 128.910 179.045 129.422 179.874 "/></g>
</svg>
