<?xml version="1.0" encoding="UTF-8"?>
<!-- Generator: visioncortex VTracer 0.6.4 -->
<svg version="1.1" xmlns="http://www.w3.org/2000/svg" width="240" height="52">
<path d="M0 0 C22 0 22 0 30 3 C33.40332659 6.48840976 34.27407583 9.31809242 34.5 14.0625 C34.35304427 17.54745024 34.02665086 18.953361 32.25 22.0625 C29.9756302 24.02098511 28.84589909 24.42005838 26 25 C26.29769287 25.48879639 26.59538574 25.97759277 26.90209961 26.48120117 C28.25489733 28.71208903 29.59625375 30.94964984 30.9375 33.1875 C31.40607422 33.95642578 31.87464844 34.72535156 32.35742188 35.51757812 C36.58613612 42.60599841 36.58613612 42.60599841 37 47 C34.36 47 31.72 47 29 47 C27.70425129 44.77312024 26.41332692 42.54366825 25.125 40.3125 C24.76019531 39.68666016 24.39539063 39.06082031 24.01953125 38.41601562 C23.66503906 37.80048828 23.31054688 37.18496094 22.9453125 36.55078125 C22.62062988 35.99044189 22.29594727 35.43010254 21.96142578 34.8527832 C20.81527787 32.64401822 19.92418074 30.31045185 19 28 C15.37 27.67 11.74 27.34 8 27 C8 33.6 8 40.2 8 47 C5.36 47 2.72 47 0 47 C0 31.49 0 15.98 0 0 Z M8 4 C8 10.27 8 16.54 8 23 C16.61417868 23.68977566 16.61417868 23.68977566 24 20 C25.99033641 18.34626504 25.99033641 18.34626504 27 16 C26.92875823 12.01046061 26.61640078 9.78077432 24.125 6.625 C20.56807134 3.90499573 17.64598245 3.88651785 13.3125 3.9375 C11.559375 3.958125 9.80625 3.97875 8 4 Z " fill="#6FCAC6" transform="translate(1,3)"/>
<path d="M0 0 C3.44585933 1.72292966 5.40248927 3.03878709 7.4375 6.3125 C8.18690779 9.89300387 7.90153171 12.4582683 7 16 C4.49077542 19.07582368 2.5704553 20.82297605 -1.42578125 21.2734375 C-9.27676809 21.54965625 -9.27676809 21.54965625 -13.125 18.625 C-16.1357692 14.40992312 -16.19002023 12.23756774 -15.58203125 7.1953125 C-14.70474984 3.8863719 -12.87652381 2.68381882 -10 1 C-6.78268449 -0.60865775 -3.4892388 -0.46696133 0 0 Z M-10.5 5.125 C-12.27801176 8.53285587 -12.70960213 10.21545532 -12 14 C-9.51397551 17.36344489 -8.08574477 18.80057749 -3.9375 19.5625 C-0.28744421 18.86355315 0.85564611 18.01797955 3 15 C4.18631347 11.28288445 4.35277667 9.72158865 2.625 6.1875 C1.18059279 4.13193917 1.18059279 4.13193917 0 3 C-5.76974075 2.29026794 -5.76974075 2.29026794 -10.5 5.125 Z " fill="#6DCAC6" transform="translate(131,21)"/>
<path d="M0 0 C3.47864534 2.88230614 4.99929691 5.30687525 5.5625 9.8125 C5.13447195 13.23672442 4.24832066 15.06473913 2.1875 17.8125 C-2.28464458 20.79392972 -6.57207505 20.53763726 -11.8125 19.8125 C-14.74460987 18.49106557 -15.67970558 17.39430377 -17.8125 14.8125 C-19.25165486 10.91831625 -18.90331481 9.11017077 -17.6875 5.125 C-13.73212694 -1.86282574 -7.13889107 -3.01419845 0 0 Z M-12.75 2.9375 C-14.2914321 5.65767429 -14.68964195 7.67961977 -14.8125 10.8125 C-13.24866066 15.1230786 -13.24866066 15.1230786 -9.8125 17.8125 C-5.75986402 18.35285146 -4.27519769 18.15449395 -0.9375 15.6875 C1.38006661 12.98904736 1.38006661 12.98904736 1.75 9.8125 C1.02952557 5.9699697 0.17847304 4.35482708 -2.8125 1.8125 C-6.32978963 1.0623336 -9.56082876 1.08572315 -12.75 2.9375 Z " fill="#6EC8C5" transform="translate(230.8125,22.1875)"/>
<path d="M0 0 C5.625 1.125 5.625 1.125 8.11328125 3.94140625 C8.9012207 4.81635742 8.9012207 4.81635742 9.70507812 5.70898438 C10.23552734 6.32064453 10.76597656 6.93230469 11.3125 7.5625 C11.86228516 8.17802734 12.41207031 8.79355469 12.97851562 9.42773438 C14.32917522 10.9428221 15.66598114 12.47023994 17 14 C17.33 9.38 17.66 4.76 18 0 C18.66 0 19.32 0 20 0 C20 6.93 20 13.86 20 21 C15.61324692 19.90331173 14.55877255 18.91352504 11.5 15.75 C10.37078125 14.59757812 10.37078125 14.59757812 9.21875 13.421875 C7.03847116 11.04199317 5.01627073 8.52033841 3 6 C2.67 10.95 2.34 15.9 2 21 C1.34 21 0.68 21 0 21 C0 14.07 0 7.14 0 0 Z " fill="#6FC9C5" transform="translate(146,21)"/>
<path d="M0 0 C10.625 -0.125 10.625 -0.125 14 1 C16.15502531 4.23253796 16.46856135 5.25150923 16 9 C14.36038241 11.15656709 13.40332096 11.90874776 10.73828125 12.51171875 C9.93777344 12.56972656 9.13726562 12.62773438 8.3125 12.6875 C7.10013672 12.78611328 7.10013672 12.78611328 5.86328125 12.88671875 C5.24839844 12.92410156 4.63351563 12.96148437 4 13 C4 15.64 4 18.28 4 21 C2.68 21 1.36 21 0 21 C0 14.07 0 7.14 0 0 Z M4 2 C4 4.64 4 7.28 4 10 C6.91652174 10.16681109 6.91652174 10.16681109 10 10 C10.66 9.34 11.32 8.68 12 8 C11.98617135 5.94285168 11.98617135 5.94285168 11 4 C8.41847698 2.27898465 7.15081975 2 4 2 Z " fill="#6EC9C5" transform="translate(92,21)"/>
<path d="M0 0 C6.27 0 12.54 0 19 0 C14.93147585 6.25163466 10.63710696 12.15724523 6 18 C9.96 18.33 13.92 18.66 18 19 C18 19.66 18 20.32 18 21 C11.73 21 5.46 21 -1 21 C0.39179267 18.21641466 1.60093161 16.0140947 3.3828125 13.546875 C3.82753906 12.928125 4.27226562 12.309375 4.73046875 11.671875 C5.19066406 11.03765625 5.65085938 10.4034375 6.125 9.75 C6.59292969 9.1003125 7.06085938 8.450625 7.54296875 7.78125 C8.69274282 6.18564517 9.84602566 4.59256975 11 3 C7.37 2.67 3.74 2.34 0 2 C0 1.34 0 0.68 0 0 Z " fill="#6FC9C5" transform="translate(175,21)"/>
<path d="M0 0 C-0.33 0.99 -0.66 1.98 -1 3 C-3.64 3 -6.28 3 -9 3 C-9 3.66 -9 4.32 -9 5 C-8.36191406 5.34933594 -7.72382812 5.69867188 -7.06640625 6.05859375 C-6.24011719 6.51363281 -5.41382812 6.96867187 -4.5625 7.4375 C-3.73878906 7.88996094 -2.91507813 8.34242187 -2.06640625 8.80859375 C0 10 0 10 1 11 C1.4632783 16.32770051 1.4632783 16.32770051 -0.16015625 18.68359375 C-2.73057132 20.52272301 -4.56422438 20.29773326 -7.6875 20.1875 C-9.17830078 20.14689453 -9.17830078 20.14689453 -10.69921875 20.10546875 C-11.45847656 20.07066406 -12.21773438 20.03585938 -13 20 C-13.33 18.68 -13.66 17.36 -14 16 C-11.03 16.33 -8.06 16.66 -5 17 C-4.67 15.68 -4.34 14.36 -4 13 C-4.63808594 12.65066406 -5.27617188 12.30132812 -5.93359375 11.94140625 C-6.75988281 11.48636719 -7.58617188 11.03132813 -8.4375 10.5625 C-9.26121094 10.11003906 -10.08492188 9.65757813 -10.93359375 9.19140625 C-13 8 -13 8 -14 7 C-14.3125 4.625 -14.3125 4.625 -14 2 C-10.25989425 -2.33852267 -5.05014338 -1.68338113 0 0 Z " fill="#6FC8C5" transform="translate(83,22)"/>
<path d="M0 0 C4.62 0 9.24 0 14 0 C14 0.66 14 1.32 14 2 C10.7 2 7.4 2 4 2 C4 4.31 4 6.62 4 9 C6.64 9 9.28 9 12 9 C12 9.66 12 10.32 12 11 C9.36 11 6.72 11 4 11 C4 13.64 4 16.28 4 19 C7.63 19 11.26 19 15 19 C15 19.66 15 20.32 15 21 C10.05 21 5.1 21 0 21 C0 14.07 0 7.14 0 0 Z " fill="#6FC9C5" transform="translate(46,21)"/>
<path d="M0 0 C1.32 0 2.64 0 4 0 C4 6.93 4 13.86 4 21 C2.68 21 1.36 21 0 21 C0 14.07 0 7.14 0 0 Z " fill="#6FC9C6" transform="translate(201,21)"/>
</svg>
